# xmcd
#
# Track frame offsets: 
#        150
#        14669
#        29245
#        43026
#        58668
#        74298
#        87687
#        99444
#        114314
#        127585
#        140478
#        154932
#        167813
#        182765
#
# Disc length: 2612 seconds
#
# Revision: 1
# Processed by: cddbd v1.5.2PL0 Copyright (c) Steve Scherf et al.
# Submitted via: ExactAudioCopyFreeDBPlugin 1.0
#
DISCID=c50a320e
DTITLE=Various Artist - Paris Café Blues CD1
DYEAR=2014
DGENRE=Blues
TTITLE0=Bessie Smith - Saint Louis Blues
TTITLE1=Ma Rainey - See see rider blues
TTITLE2=Blind Lemon Jefferson - Matchbox blues
TTITLE3=Jimmie Rodgers - Blue yodel n°1
TTITLE4=Ethel Waters - West end blues
TTITLE5=Blind Blake - Too tight blues n°2
TTITLE6=Memphis Jug Band - Kc moan
TTITLE7=Mississippi Sheiks - Sitting on top of the world
TTITLE8=Leroy Carr - New how long how long blues
TTITLE9=Josh White - Blood river blues
TTITLE10=Charley Patton - High sheriff blues
TTITLE11=Tampa Red - Mean mistreater blues
TTITLE12=Memphis Minnie - If you see my rooster
TTITLE13=Robert Johnson - I believe i'll dust my broom
EXTD=
EXTT0=
EXTT1=
EXTT2=
EXTT3=
EXTT4=
EXTT5=
EXTT6=
EXTT7=
EXTT8=
EXTT9=
EXTT10=
EXTT11=
EXTT12=
EXTT13=
PLAYORDER=
